<svg width="44" height="45" viewBox="0 0 44 45" fill="none" xmlns="http://www.w3.org/2000/svg">
<path d="M0 25.2987V12.7273L10.8197 18.939L0 25.2987Z" fill="#01A2A7"/>
<path d="M10.8197 19.0131V6.44174L22.3607 12.6535L10.8197 19.0131Z" fill="#36C5EF"/>
<path d="M22.3606 25.2987V12.7273L10.8196 18.939L22.3606 25.2987Z" fill="#EBB22F"/>
<path d="M10.8197 19.0131V6.44174L-3.8147e-06 12.6535L10.8197 19.0131Z" fill="#EBB22F"/>
<path d="M22.3606 12.7273V0.155853L10.8196 6.3676L22.3606 12.7273Z" fill="#FF4B40"/>
<path d="M44 25.2987V12.7273L33.1803 18.939L44 25.2987Z" fill="#EBB22F"/>
<path d="M33.1803 19.0131V6.44174L22.3606 12.6535L33.1803 19.0131Z" fill="white"/>
<path d="M22.3606 25.2987V12.7273L33.1803 18.939L22.3606 25.2987Z" fill="#FF4B40"/>
<path d="M33.1803 19.0131V6.44174L44 12.6535L33.1803 19.0131Z" fill="#FF4B40"/>
<path d="M22.3606 12.7273V0.155853L33.1803 6.3676L22.3606 12.7273Z" fill="#01A2A7"/>
<path d="M10.8197 25.2987V37.8701L22.3607 31.6583L10.8197 25.2987Z" fill="#36C5EF"/>
<path d="M10.8197 25.2987V37.8701L-3.8147e-06 31.6583L10.8197 25.2987Z" fill="#01A2A7"/>
<path d="M22.3606 30.8861V44.1559L10.8196 37.599L22.3606 30.8861Z" fill="#EBB22F"/>
<path d="M33.1803 25.2987V37.8701L22.3606 31.6583L33.1803 25.2987Z" fill="#36C5EF"/>
<path d="M33.1803 25.2987V37.8701L44 31.6583L33.1803 25.2987Z" fill="#01A2A7"/>
<path d="M22.3606 30.8861V44.1559L33.1803 37.599L22.3606 30.8861Z" fill="#FF4B40"/>
</svg>
